<svg xmlns="http://www.w3.org/2000/svg" xmlns:xlink="http://www.w3.org/1999/xlink" version="1.1" width="1080" height="1080" viewBox="0 0 1080 1080" xml:space="preserve">
<desc>Created with Fabric.js 3.5.0</desc>
<defs>
</defs>
<rect x="0" y="0" width="100%" height="100%" fill="#ffffff"/>
<g transform="matrix(0.3461 0 0 0.3461 540.0611 540.0363)" id="600634">
<g style="" vector-effect="non-scaling-stroke">
		<g transform="matrix(1 0 0 1 0.8121 -435.5277)" id="Layer_1">
<path style="stroke: none; stroke-width: 1; stroke-dasharray: none; stroke-linecap: butt; stroke-dashoffset: 0; stroke-linejoin: miter; stroke-miterlimit: 4; is-custom-font: none; font-file-url: none; fill: rgb(246,161,146); fill-rule: nonzero; opacity: 1;" transform=" translate(-1405.2071, -398.8604)" d="M 1319.2197 183.9969 c 27.7946 -50.3859 55.8433 -100.6563 86.0887 -149.6088 c 29.3207 47.5649 56.6989 96.3094 83.6837 145.2616 c 20.2102 37.5988 42.085 74.4346 58.6646 113.8603 c 39.0321 89.5572 70.8501 183.8777 78.2729 281.875 c 4.3936 63.7285 -2.2201 130.4167 -31.6793 187.9477 c -13.134 -42.9636 -29.2974 -85.0019 -47.3569 -126.1155 c -17.6664 -41.8071 -41.021 -80.7933 -62.4333 -120.6813 c -25.5975 -46.2238 -51.5424 -92.2627 -79.1516 -137.2841 c -27.1238 44.2121 -52.6522 89.3723 -77.7875 134.7637 c -17.6201 32.4883 -36.0494 64.5837 -52.3516 97.7659 c -22.6149 48.9066 -42.6395 99.0612 -58.6411 150.5341 c -0.4392 -0.0463 -1.2948 -0.1852 -1.7343 -0.2546 c -21.7362 -44.9982 -31.0319 -95.2455 -31.4941 -144.9841 c -0.7861 -53.947 7.9546 -107.64 21.4586 -159.7369 c 14.2209 -54.8491 33.922 -108.1254 56.5137 -160.0146 C 1277.4586 258.0152 1299.0793 221.3414 1319.2197 183.9969 z" stroke-linecap="round"/>
</g>
		<g transform="matrix(1 0 0 1 -402.6199 -332.6051)" id="Layer_1">
<path style="stroke: none; stroke-width: 1; stroke-dasharray: none; stroke-linecap: butt; stroke-dashoffset: 0; stroke-linejoin: miter; stroke-miterlimit: 4; is-custom-font: none; font-file-url: none; fill: rgb(246,161,146); fill-rule: nonzero; opacity: 1;" transform=" translate(-1001.7751, -501.7831)" d="M 858.1838 226.8448 c 56.4677 19.4932 110.2989 46.3164 160.9857 77.88 c 47.75 29.968 93.2338 63.7976 134.1394 102.6683 c -24.4418 48.2816 -31.4248 103.1538 -32.4192 156.6384 c -0.3007 72.0063 10.6367 144.0363 32.3497 212.6898 c -46.2007 -64.3065 -92.91 -130.1622 -156.1298 -179.1147 c -39.5874 -31.1704 -83.4526 -56.3519 -127.5952 -80.4695 c -18.129 -61.2309 -20.025 -125.8149 -19.0769 -189.2196 C 851.5705 294.1341 853.9983 260.397 858.1838 226.8448 z" stroke-linecap="round"/>
</g>
		<g transform="matrix(1 0 0 1 398.7132 -332.7671)" id="Layer_1">
<path style="stroke: none; stroke-width: 1; stroke-dasharray: none; stroke-linecap: butt; stroke-dashoffset: 0; stroke-linejoin: miter; stroke-miterlimit: 4; is-custom-font: none; font-file-url: none; fill: rgb(246,161,146); fill-rule: nonzero; opacity: 1;" transform=" translate(-1803.1082, -501.621)" d="M 1740.5989 334.8316 c 63.4508 -44.929 132.5671 -82.2735 206.0305 -108.01 c 7.3762 58.063 10.1973 116.8199 7.0291 175.2993 c -2.2429 36.5581 -6.4047 73.2319 -16.1864 108.5878 c -1.1099 2.7056 -1.1793 6.567 -4.4396 7.7695 c -41.6686 22.7997 -82.9436 46.7327 -120.7275 75.66 c -61.3931 46.6401 -107.9406 109.0504 -152.3375 171.2755 c -2.6825 3.8388 -5.5729 7.5383 -8.6945 11.0068 c 15.9089 -46.2701 24.7882 -94.7137 29.6672 -143.3193 c 5.2029 -56.1205 4.8099 -113.49 -8.3938 -168.5468 c -4.9713 -19.5855 -11.3303 -38.9861 -21.0654 -56.722 C 1678.9749 380.9629 1709.3822 357.1919 1740.5989 334.8316 z" stroke-linecap="round"/>
</g>
		<g transform="matrix(1 0 0 1 -610.0585 -209.6921)" id="Layer_1">
<path style="stroke: none; stroke-width: 1; stroke-dasharray: none; stroke-linecap: butt; stroke-dashoffset: 0; stroke-linejoin: miter; stroke-miterlimit: 4; is-custom-font: none; font-file-url: none; fill: rgb(246,161,146); fill-rule: nonzero; opacity: 1;" transform=" translate(-794.3366, -624.696)" d="M 490.7747 426.8398 c 205.4984 52.7911 393.4461 166.7434 540.8583 318.6417 c 23.4241 24.488 46.5012 49.5766 66.4337 77.0707 c -76.0069 -54.1324 -155.6443 -103.5933 -240.0679 -143.5739 c -54.7103 -25.8056 -111.0622 -48.9525 -169.819 -63.7285 c 11.4 32.6274 15.192 67.2896 18.9612 101.4893 c -36.0494 -32.9278 -77.6254 -58.9649 -118.4153 -85.4874 c -17.4581 -11.192 -35.2402 -21.875 -52.814 -32.7896 c -18.73 -18.221 -28.8349 -43.3794 -35.4253 -68.2142 C 491.6071 496.5571 490.0117 461.525 490.7747 426.8398 z" stroke-linecap="round"/>
</g>
		<g transform="matrix(1 0 0 1 600.2652 -206.9402)" id="Layer_1">
<path style="stroke: none; stroke-width: 1; stroke-dasharray: none; stroke-linecap: butt; stroke-dashoffset: 0; stroke-linejoin: miter; stroke-miterlimit: 4; is-custom-font: none; font-file-url: none; fill: rgb(246,161,146); fill-rule: nonzero; opacity: 1;" transform=" translate(-2004.6602, -627.4479)" d="M 1788.1178 727.3062 c 144.2672 -141.1918 324.1449 -247.3978 520.1395 -297.6682 c 1.0403 46.9637 -2.3354 95.6387 -22.314 138.8564 c -6.521 12.5562 -13.6201 25.7133 -25.1819 34.3383 c -35.8645 21.8287 -71.5208 44.0963 -106.0901 67.9368 c -21.7598 15.0997 -43.2871 30.6849 -62.7344 48.7445 c 3.9541 -34.1997 7.0295 -69.2316 19.4473 -101.6047 c -85.3492 22.0139 -165.9805 59.2655 -243.167 101.2575 c -45.5995 25.1818 -89.8806 52.7448 -132.8212 82.2504 c -11.6311 7.7466 -22.6379 16.441 -34.5004 23.8405 C 1727.0255 790.1331 1757.0859 758.1068 1788.1178 727.3062 z" stroke-linecap="round"/>
</g>
		<g transform="matrix(1 0 0 1 -3.0534 145.2534)" id="Layer_1">
<path style="stroke: none; stroke-width: 1; stroke-dasharray: none; stroke-linecap: butt; stroke-dashoffset: 0; stroke-linejoin: miter; stroke-miterlimit: 4; is-custom-font: none; font-file-url: none; fill: rgb(246,161,146); fill-rule: nonzero; opacity: 1;" transform=" translate(-1401.3416, -979.6415)" d="M 1401.4008 538.5726 c 38.7546 62.0865 73.6714 126.4622 108.7031 190.6993 c 24.2106 42.6859 43.0331 88.1238 60.5837 133.8848 c 32.8121 88.1933 56.9531 181.7509 52.0973 276.5571 c -2.8673 52.0046 -16.071 104.1482 -43.2179 148.9149 c -38.7782 65.1161 -105.1425 110.4841 -176.9409 132.0817 c -82.019 -22.4066 -156.7539 -78.7356 -192.7805 -156.9625 c -22.3142 -47.1948 -30.6387 -99.847 -30.5692 -151.736 c 1.4568 -92.91 27.1932 -183.5777 61.1384 -269.4581 c 15.6777 -39.3562 32.6042 -78.2963 53.6234 -115.1319 C 1328.6078 663.786 1363.5704 600.3353 1401.4008 538.5726 z" stroke-linecap="round"/>
</g>
		<g transform="matrix(1 0 0 1 -902.0817 83.5483)" id="Layer_1">
<path style="stroke: none; stroke-width: 1; stroke-dasharray: none; stroke-linecap: butt; stroke-dashoffset: 0; stroke-linejoin: miter; stroke-miterlimit: 4; is-custom-font: none; font-file-url: none; fill: rgb(246,161,146); fill-rule: nonzero; opacity: 1;" transform=" translate(-502.3134, -917.9364)" d="M 161.5657 571.6622 c 68.0525 4.5323 135.5036 16.3021 201.7061 32.5349 c 64.2603 16.2325 127.4798 37.5754 186.7684 67.3819 c 62.8497 31.4939 122.069 72.8621 166.3734 128.0344 c -7.5151 64.4454 -7.0988 129.7692 0.7401 194.1678 c 9.9892 78.4584 32.396 157.8409 80.2847 222.0085 c 13.2728 17.8513 28.8118 33.8763 45.6226 48.421 c -88.9791 -10.5212 -175.4841 -39.9111 -253.7339 -83.337 c -74.9433 -41.877 -141.6313 -99.015 -192.4567 -168.3391 c -40.4198 -54.8257 -70.8504 -116.7504 -91.3146 -181.6351 c -13.7818 -60.5834 -34.5003 -120.1264 -66.2951 -173.7033 C 219.2818 624.0601 194.2855 592.9359 161.5657 571.6622 z" stroke-linecap="round"/>
</g>
		<g transform="matrix(1 0 0 1 886.936 83.479)" id="Layer_1">
<path style="stroke: none; stroke-width: 1; stroke-dasharray: none; stroke-linecap: butt; stroke-dashoffset: 0; stroke-linejoin: miter; stroke-miterlimit: 4; is-custom-font: none; font-file-url: none; fill: rgb(246,161,146); fill-rule: nonzero; opacity: 1;" transform=" translate(-2291.331, -917.8671)" d="M 2545.0415 581.3742 c 28.6733 -4.3241 57.5083 -7.8389 86.4822 -9.712 c -29.1357 20.6725 -53.2302 47.7269 -72.0532 78.0189 c -28.5571 45.5068 -48.1658 96.1008 -62.5947 147.6894 c -4.2781 14.5679 -6.521 29.6676 -11.7471 43.9578 c -27.9563 84.447 -73.6484 163.4135 -135.3647 227.6738 c -58.9419 62.1793 -131.7808 110.3915 -210.3774 144.0363 c -60.0286 25.3431 -123.3635 43.9346 -188.2482 51.0337 c 31.5865 -26.8004 57.2075 -60.2368 75.8915 -97.1649 c 21.8748 -42.5244 35.5867 -88.8866 44.1655 -135.8042 c 13.5044 -76.2612 15.1692 -154.5807 6.4514 -231.4663 c 51.6814 -64.0519 122.7629 -109.5125 197.2898 -142.6718 C 2360.7705 619.019 2452.4788 595.6875 2545.0415 581.3742 z" stroke-linecap="round"/>
</g>
		<g transform="matrix(1 0 0 1 -415.552 221.2301)" id="Layer_1">
<path style="stroke: none; stroke-width: 1; stroke-dasharray: none; stroke-linecap: butt; stroke-dashoffset: 0; stroke-linejoin: miter; stroke-miterlimit: 4; is-custom-font: none; font-file-url: none; fill: rgb(246,161,146); fill-rule: nonzero; opacity: 1;" transform=" translate(-988.8429, -1055.6182)" d="M 760.3945 730.1735 c 43.1254 13.7126 85.3489 30.2457 126.7168 48.6287 c 47.7269 21.4818 94.5057 45.5763 137.3996 75.7294 c 30.6617 21.8058 60.075 46.7787 80.7936 78.5967 c 8.0006 12.9957 15.4463 27.0549 17.7357 42.2929 c -9.3419 60.4451 -12.0938 122.1616 -5.3879 183.0458 c 4.8099 42.9167 14.4985 85.7184 32.8124 125.0051 c 15.3077 33.3677 37.9918 63.4513 66.8267 86.297 c -90.4819 23.3781 -192.2484 11.0994 -269.874 -42.8015 c -64.2371 -43.8884 -107.5474 -111.8712 -136.5671 -182.8145 c -21.9442 -53.7389 -33.8991 -111.2699 -37.2059 -169.1249 c -3.7923 -56.884 2.1969 -113.7211 3.8618 -170.582 C 777.1821 779.0105 776.234 751.4012 760.3945 730.1735 z" stroke-linecap="round"/>
</g>
		<g transform="matrix(1 0 0 1 401.3194 221.2478)" id="Layer_1">
<path style="stroke: none; stroke-width: 1; stroke-dasharray: none; stroke-linecap: butt; stroke-dashoffset: 0; stroke-linejoin: miter; stroke-miterlimit: 4; is-custom-font: none; font-file-url: none; fill: rgb(246,161,146); fill-rule: nonzero; opacity: 1;" transform=" translate(-1805.7144, -1055.6359)" d="M 1851.245 805.7645 c 58.7103 -30.1068 119.9413 -55.358 182.7444 -75.5448 c -15.8392 21.2509 -16.6951 48.8371 -16.9954 74.2498 c 1.6648 58.4331 7.9543 116.8893 3.538 175.3456 c -5.5038 92.9331 -36.0498 184.3403 -88.6094 261.249 c -24.6263 35.5636 -55.4963 67.1044 -91.939 90.5977 c -76.631 49.9927 -174.8367 60.676 -262.5442 38.1769 c 27.0084 -22.1987 49.2994 -49.9933 64.3297 -81.6029 c 20.7417 -42.709 31.1241 -89.7423 35.7952 -136.752 c 5.1565 -53.2766 3.3298 -107.1082 -3.7924 -160.107 c -0.7629 -7.816 -4.0234 -15.8398 -0.9019 -23.4706 c 10.4751 -33.9915 34.593 -61.7165 60.7687 -84.8862 C 1769.1104 852.0578 1809.6917 827.5698 1851.245 805.7645 z" stroke-linecap="round"/>
</g>
		<g transform="matrix(1 0 0 1 -1204.4789 139.9727)" id="Layer_1">
<path style="stroke: none; stroke-width: 1; stroke-dasharray: none; stroke-linecap: butt; stroke-dashoffset: 0; stroke-linejoin: miter; stroke-miterlimit: 4; is-custom-font: none; font-file-url: none; fill: rgb(246,161,146); fill-rule: nonzero; opacity: 1;" transform=" translate(-199.9161, -974.3609)" d="M 145.541 900.2005 c 33.2056 -4.9019 66.9426 -6.8214 100.4948 -4.9019 c 6.1969 26.8923 19.1923 51.7733 34.8701 74.3649 c 17.2963 24.6957 38.038 46.8945 61.0461 66.3874 c -32.7429 -2.6821 -64.3757 8.371 -95.0374 18.106 c -73.4865 -18.5682 -142.1631 -60.2368 -189.0345 -120.219 C 82.4372 913.3119 114.6249 905.4727 145.541 900.2005 z" stroke-linecap="round"/>
</g>
		<g transform="matrix(1 0 0 1 1204.456 140.1505)" id="Layer_1">
<path style="stroke: none; stroke-width: 1; stroke-dasharray: none; stroke-linecap: butt; stroke-dashoffset: 0; stroke-linejoin: miter; stroke-miterlimit: 4; is-custom-font: none; font-file-url: none; fill: rgb(246,161,146); fill-rule: nonzero; opacity: 1;" transform=" translate(-2608.8509, -974.5387)" d="M 2562.7544 895.368 c 32.8352 -2.0583 65.9019 -0.1157 98.4595 4.5552 c 31.6101 5.1102 64.5842 13.0877 89.696 34.1072 c -47.1484 60.1442 -116.0566 101.5582 -189.6819 120.4962 c -30.1758 -11.0068 -61.9705 -20.6722 -94.436 -18.522 C 2509.9402 998.5679 2548.6489 951.8354 2562.7544 895.368 z" stroke-linecap="round"/>
</g>
		<g transform="matrix(1 0 0 1 -1105.1174 300.2458)" id="Layer_1">
<path style="stroke: none; stroke-width: 1; stroke-dasharray: none; stroke-linecap: butt; stroke-dashoffset: 0; stroke-linejoin: miter; stroke-miterlimit: 4; is-custom-font: none; font-file-url: none; fill: rgb(246,161,146); fill-rule: nonzero; opacity: 1;" transform=" translate(-299.2776, -1134.634)" d="M 145.4024 1158.0273 c 58.7106 -58.5483 141.5619 -93.881 224.8296 -91.6382 c 10.267 23.5859 26.4763 44.4434 46.1084 60.9995 c 10.9837 10.1052 24.4183 16.7415 36.8124 24.8115 c -39.5642 12.4639 -80.1689 25.7135 -113.7906 50.7795 c -44.6516 -15.4005 -89.8578 -29.6907 -136.2205 -39.0327 C 184.1343 1160.0625 164.8262 1157.5649 145.4024 1158.0273 z" stroke-linecap="round"/>
</g>
		<g transform="matrix(1 0 0 1 1104.9442 300.1799)" id="Layer_1">
<path style="stroke: none; stroke-width: 1; stroke-dasharray: none; stroke-linecap: butt; stroke-dashoffset: 0; stroke-linejoin: miter; stroke-miterlimit: 4; is-custom-font: none; font-file-url: none; fill: rgb(246,161,146); fill-rule: nonzero; opacity: 1;" transform=" translate(-2509.3392, -1134.568)" d="M 2355.1748 1152.0155 c 36.165 -18.4988 67.0813 -48.3052 83.5449 -85.7651 c 83.2678 -1.8732 165.9573 33.3669 224.7839 91.8232 c -22.0369 -0.7401 -43.8425 2.7979 -65.2781 7.4225 c -43.842 9.2726 -86.5974 22.962 -128.9365 37.4606 C 2435.5291 1177.8442 2394.8083 1164.6871 2355.1748 1152.0155 z" stroke-linecap="round"/>
</g>
		<g transform="matrix(1 0 0 1 -873.0734 431.2401)" id="Layer_1">
<path style="stroke: none; stroke-width: 1; stroke-dasharray: none; stroke-linecap: butt; stroke-dashoffset: 0; stroke-linejoin: miter; stroke-miterlimit: 4; is-custom-font: none; font-file-url: none; fill: rgb(246,161,146); fill-rule: nonzero; opacity: 1;" transform=" translate(-531.3216, -1265.6282)" d="M 279.2874 1283.1256 c 60.8377 -51.7507 132.8212 -94.2977 212.574 -107.2471 c 81.5103 72.7701 189.2428 114.3461 298.0154 120.0807 c -32.3265 20.9725 -69.1392 34.1302 -106.206 43.9578 c -100.726 25.4821 -207.649 17.8281 -306.8025 -10.9836 c -35.5408 -10.2441 -70.2723 -23.1698 -104.102 -38.0155 C 272.7896 1287.1259 277.0674 1285.5536 279.2874 1283.1256 z" stroke-linecap="round"/>
</g>
		<g transform="matrix(1 0 0 1 873.6169 431.2592)" id="Layer_1">
<path style="stroke: none; stroke-width: 1; stroke-dasharray: none; stroke-linecap: butt; stroke-dashoffset: 0; stroke-linejoin: miter; stroke-miterlimit: 4; is-custom-font: none; font-file-url: none; fill: rgb(246,161,146); fill-rule: nonzero; opacity: 1;" transform=" translate(-2278.0119, -1265.6473)" d="M 2276.1621 1208.3209 c 13.9893 -10.0121 27.9097 -20.3257 40.2114 -32.4192 c 64.0752 9.7811 123.179 40.1888 175.4607 77.5099 c 15.2617 11.5387 31.2632 22.7306 44.4209 36.6278 c -13.1116 7.5151 -28.0723 12.0936 -42.0852 18.0133 c -97.3728 37.2285 -203.3479 56.167 -307.4268 43.3334 c -50.5938 -6.2664 -100.6101 -19.7706 -146.2791 -42.6858 c -7.0754 -3.9546 -14.6831 -7.1917 -20.6954 -12.6486 C 2111.0833 1290.9642 2201.0107 1260.5802 2276.1621 1208.3209 z" stroke-linecap="round"/>
</g>
		<g transform="matrix(1 0 0 1 -507.7107 589.2656)" id="Layer_1">
<path style="stroke: none; stroke-width: 1; stroke-dasharray: none; stroke-linecap: butt; stroke-dashoffset: 0; stroke-linejoin: miter; stroke-miterlimit: 4; is-custom-font: none; font-file-url: none; fill: rgb(246,161,146); fill-rule: nonzero; opacity: 1;" transform=" translate(-896.6843, -1423.6537)" d="M 795.2186 1359.988 c 23.1003 -15.7936 49.2065 -29.6213 77.6486 -31.2168 c 21.0423 35.1245 55.5658 60.2137 91.7541 78.1576 c 67.96 32.9277 145.1921 39.1248 219.6036 36.026 c -90.2972 38.5009 -186.8147 62.1561 -284.4188 71.8217 c -97.3498 8.9259 -197.1971 2.7747 -290.6624 -27.2859 c 24.2336 -5.6188 48.5133 -12.0472 70.9661 -23.0309 c 9.8506 -5.0638 19.6087 -11.0299 26.6846 -19.7476 C 733.0395 1413.3804 761.5738 1383.4581 795.2186 1359.988 z" stroke-linecap="round"/>
</g>
		<g transform="matrix(1 0 0 1 507.3177 589.061)" id="Layer_1">
<path style="stroke: none; stroke-width: 1; stroke-dasharray: none; stroke-linecap: butt; stroke-dashoffset: 0; stroke-linejoin: miter; stroke-miterlimit: 4; is-custom-font: none; font-file-url: none; fill: rgb(246,161,146); fill-rule: nonzero; opacity: 1;" transform=" translate(-1911.7127, -1423.4491)" d="M 1793.783 1426.1903 c 55.9587 -16.6025 110.9001 -47.4952 142.8801 -97.8351 c 36.8818 3.9077 69.4166 24.3717 97.5115 47.4032 c 19.7244 16.3247 37.7146 34.6852 54.7332 53.8083 c 8.9258 9.5729 16.1638 21.1115 27.6331 28.0254 c 25.0886 15.562 54.0854 23.054 82.5505 29.8522 c -105.0266 34.0614 -218.0544 37.4374 -326.8969 23.1235 c -85.025 -11.839 -168.8242 -33.8757 -247.8605 -67.5437 C 1681.1486 1444.99 1738.9573 1442.6313 1793.783 1426.1903 z" stroke-linecap="round"/>
</g>
		<g transform="matrix(1 0 0 1 -3.2144 695.4039)" id="Layer_1">
<path style="stroke: none; stroke-width: 1; stroke-dasharray: none; stroke-linecap: butt; stroke-dashoffset: 0; stroke-linejoin: miter; stroke-miterlimit: 4; is-custom-font: none; font-file-url: none; fill: rgb(246,161,146); fill-rule: nonzero; opacity: 1;" transform=" translate(-1401.1806, -1529.792)" d="M 1191.0231 1530.1307 c 7.4919 -39.1716 24.6497 -77.8802 54.7102 -104.9347 c 10.7524 33.1362 41.2062 55.4038 72.4689 67.6825 c 26.9158 10.4751 55.8202 15.5621 84.609 16.8109 c 39.5874 -1.526 80.7008 -9.1801 113.9292 -32.0262 c 18.1753 -12.8099 33.5522 -30.7081 39.7957 -52.3513 c 31.4711 28.0947 48.8137 69.1852 55.5427 110.2063 c -6.4978 15.9324 -18.8457 29.182 -31.2631 40.9978 c -30.0374 27.1239 -68.9543 42.2004 -108.1022 50.3862 c -58.7106 12.4639 -120.6354 9.3419 -177.704 -9.2031 c -38.1537 -12.7411 -74.9202 -34.6852 -97.6044 -68.7229 C 1193.9135 1543.2648 1188.2483 1537.3219 1191.0231 1530.1307 z" stroke-linecap="round"/>
</g>
</g>
</g>
</svg>