<svg xmlns="http://www.w3.org/2000/svg" xmlns:xlink="http://www.w3.org/1999/xlink" version="1.1" width="1080" height="1080" viewBox="0 0 1080 1080" xml:space="preserve">
<desc>Created with Fabric.js 3.5.0</desc>
<defs>
</defs>
<rect x="0" y="0" width="100%" height="100%" fill="#ffffff"/>
<g transform="matrix(0.9753 0 0 0.9753 539.9819 539.9896)" id="314208">
<g style="" vector-effect="non-scaling-stroke">
		<g transform="matrix(1 0 0 1 -250.2966 -84.6449)" id="XMLID_1_">
<path style="stroke: none; stroke-width: 1; stroke-dasharray: none; stroke-linecap: butt; stroke-dashoffset: 0; stroke-linejoin: miter; stroke-miterlimit: 4; is-custom-font: none; font-file-url: none; fill: rgb(110,28,226); fill-rule: nonzero; opacity: 1;" transform=" translate(-253.0265, -202.4209)" d="M 329.5415 301.24 c 0.38 0.23 0.6 0.73 1.21 1.52 c -7.56 -0.79 -14.12 -3.51 -20.77 -5.83 c -21.73 -7.59 -42.91 -16.29 -62.15 -29.27 c -22.42 -15.12 -40.16 -34.46 -52.55 -58.39 c -15.73 -30.4 -23.02 -62.64 -18.8 -97 c 0.15 -1.16 0.27 -2.31 0.36 -3.47 c 0.43 -5.77 2.32 -7.41 8.01 -6.47 c 9.21 1.52 18.29 3.52 27.04 6.94 c 18.85 7.38 36.73 16.55 52.48 29.4 c 5.18 4.24 10.01 9.03 15 15.53 c -8.73 -3.63 -16.16 -6.82 -23.66 -9.82 c -15.52 -6.21 -31.65 -10.15 -48.12 -12.87 c -3.71 -0.61 -4.97 0.1 -4.83 4.12 c 1.3 38.95 14.69 73.19 40.68 102.11 c 20.24 22.53 45.65 38.61 71.17 54.4 C 319.5715 295.21 324.5815 298.19 329.5415 301.24 z" stroke-linecap="round"/>
</g>
		<g transform="matrix(1 0 0 1 -312.2904 -54.162)" id="XMLID_1_">
<path style="stroke: none; stroke-width: 1; stroke-dasharray: none; stroke-linecap: butt; stroke-dashoffset: 0; stroke-linejoin: miter; stroke-miterlimit: 4; is-custom-font: none; font-file-url: none; fill: rgb(110,28,226); fill-rule: nonzero; opacity: 1;" transform=" translate(-191.0327, -232.9038)" d="M 247.2815 285.15 c 0.21 0.12 0.23 0.55 0.36 0.91 c -1.36 1.3 -3.13 0.88 -4.68 0.9 c -20.87 0.32 -41.61 -0.68 -61.94 -5.92 c -27.02 -6.95 -48.38 -31.11 -46.48 -62.21 c 0.73 -11.96 1.22 -23.91 3.28 -35.74 c 0.28 -1.59 -0.16 -3.59 1.93 -4.17 c 2.25 -0.63 3.18 1.23 4.27 2.7 c 16.92 22.92 34.76 45.08 53.56 66.49 c 13.19 15.02 28.75 26.67 46.65 35.35 C 245.2715 283.96 246.2915 284.54 247.2815 285.15 z" stroke-linecap="round"/>
</g>
		<g transform="matrix(1 0 0 1 -358.2742 146.1208)" id="XMLID_1_">
<path style="stroke: none; stroke-width: 1; stroke-dasharray: none; stroke-linecap: butt; stroke-dashoffset: 0; stroke-linejoin: miter; stroke-miterlimit: 4; is-custom-font: none; font-file-url: none; fill: rgb(110,28,226); fill-rule: nonzero; opacity: 1;" transform=" translate(-145.0488, -433.1867)" d="M 239.3115 468.6 c 1.12 0.04 2.23 0.32 4.08 0.6 c -2.91 2.43 -5.83 3.18 -8.67 3.65 c -37.13 6.26 -74.16 8.54 -110.72 -3.46 c -17.82 -5.85 -33.02 -16.34 -48.06 -27.18 c -10.95 -7.88 -19.91 -17.58 -27.78 -28.44 c -2.05 -2.83 -2.25 -4.41 1.47 -6.2 c 17.62 -8.51 35.86 -15.1 55.08 -18.86 c 1.32 -0.26 2.92 -0.8 3.58 0.7 c 0.7 1.6 -1.09 2.23 -2.02 3 c -7.48 6.11 -15.02 12.15 -22.54 18.21 c -1.69 1.36 -3.05 2.44 -0.43 4.52 c 26.44 21.04 55.44 36.9 88.86 43.55 C 194.3615 463.11 216.5815 467.62 239.3115 468.6 z" stroke-linecap="round"/>
</g>
		<g transform="matrix(1 0 0 1 -220.8597 70.4526)" id="XMLID_1_">
<path style="stroke: none; stroke-width: 1; stroke-dasharray: none; stroke-linecap: butt; stroke-dashoffset: 0; stroke-linejoin: miter; stroke-miterlimit: 4; is-custom-font: none; font-file-url: none; fill: rgb(110,28,226); fill-rule: nonzero; opacity: 1;" transform=" translate(-282.4633, -357.5185)" d="M 458.3115 410.22 c -3.14 0 -4.84 -1.47 -6.48 -2.66 c -16.27 -11.85 -34.23 -20.7 -52.63 -28.49 c -18.02 -7.62 -37.13 -11.68 -56.54 -14.1 c -32.75 -4.08 -65.7 -5.67 -98.57 -8.19 c -18.94 -1.45 -36.7 -7.6 -54.22 -14.74 c -13.97 -5.7 -27 -12.91 -39.54 -21.16 c -1.37 -0.9 -3.01 -3.1 -4.65 -1.79 c -1.89 1.52 -0.28 3.78 0.48 5.51 c 7.21 16.46 18.09 30.65 27.97 45.48 c 21.69 32.55 51.42 54.52 88.07 67.39 c 15.99 5.62 32.67 7.78 49.51 8.92 c 13.61 0.93 27.21 1.97 40.83 0.97 c -34.47 9.47 -68.88 12.16 -104.25 4.61 c -35.76 -7.64 -65.47 -25.3 -90.65 -50.71 c -32.98 -33.28 -49.45 -74.02 -50.83 -120.86 c -0.18 -5.99 -0.44 -11.99 0.29 -17.97 c 0.12 -0.96 0.49 -1.9 0.99 -3.73 c 5.63 5.87 11.11 11.05 16.64 16.17 c 18.53 17.15 40.56 25.57 65.52 27.23 c 31.57 2.09 63.18 3.89 94.47 8.88 c 24.34 3.88 48.72 7.54 72.43 14.6 c 14.66 4.36 27.12 12.86 38.99 21.92 c 21 16.03 38.74 35.53 56.11 55.32 C 454.1915 405.02 455.9815 407.36 458.3115 410.22 z" stroke-linecap="round"/>
</g>
		<g transform="matrix(1 0 0 1 -118.3334 198.5954)" id="XMLID_1_">
<path style="stroke: none; stroke-width: 1; stroke-dasharray: none; stroke-linecap: butt; stroke-dashoffset: 0; stroke-linejoin: miter; stroke-miterlimit: 4; is-custom-font: none; font-file-url: none; fill: rgb(110,28,226); fill-rule: nonzero; opacity: 1;" transform=" translate(-384.9897, -485.6613)" d="M 473.6615 424.59 c -3.08 4.04 -6.38 5.79 -9.29 7.96 c -2.93 2.18 -5.93 4.31 -9.06 6.21 c -20.79 12.6 -41.69 25 -63.4 36.02 c -13 6.6 -26.69 10.22 -41.08 11.61 c -2.49 0.24 -4.98 0.47 -7.46 0.79 c -1.09 0.14 -2.57 -0.09 -2.89 1.35 c -0.26 1.13 0.94 1.66 1.7 2.25 c 10.57 8.34 22.24 14.38 35.18 18.4 c 28.92 8.96 52.69 -1.67 74.43 -19.23 c 15.13 -12.23 26.89 -27.67 38.02 -43.54 c 0.65 -0.92 1.36 -1.8 2.7 -3.56 c 2.85 16.82 -0.73 31.24 -9.46 44.32 c -11.65 17.45 -25.24 33.01 -43.61 43.95 c -13.02 7.75 -27.38 11.17 -41.94 13.88 c -31.22 5.79 -59.27 -3.52 -85.74 -19.18 c -9.49 -5.61 -16.99 -13.46 -22.35 -23.1 c -4.28 -7.7 -7.98 -15.73 -12.03 -23.56 c -1.81 -3.5 -0.82 -4.85 3.03 -4.85 c 9.49 -0.01 18.99 -0.02 28.49 -0.27 c 27.41 -0.72 53.7 -7.22 79.64 -15.55 c 27.64 -8.87 54.5 -19.66 80.78 -31.94 C 470.3515 426.07 471.4015 425.61 473.6615 424.59 z" stroke-linecap="round"/>
</g>
		<g transform="matrix(1 0 0 1 116.2616 198.2958)" id="XMLID_1_">
<path style="stroke: none; stroke-width: 1; stroke-dasharray: none; stroke-linecap: butt; stroke-dashoffset: 0; stroke-linejoin: miter; stroke-miterlimit: 4; is-custom-font: none; font-file-url: none; fill: rgb(110,28,226); fill-rule: nonzero; opacity: 1;" transform=" translate(-619.5846, -485.3616)" d="M 728.8215 472.99 c 1.8 2.47 -1.02 5.39 -2.5099 7.5 c -13 18.35 -25.66 37.26 -45.04 49.59 c -18.94 12.06 -39.87 18.26 -62.61 17.32 c -9.49 -0.39 -19.02 -0.17 -28.39 -1.89 c -23.45 -4.29 -42 -17.05 -57.92 -34.12 c -10.16 -10.89 -17.42 -23.52 -21.2 -38 c -2.73 -10.48 -0.93 -20.82 1.16 -31.61 c 2.54 0.94 4.37 2.36 5.19 4.28 c 6.12 14.22 17.8199 23.86 27.9399 34.87 c 17.23 18.76 38.4 26.31 63.64 24.92 c 15.85 -0.87 31.2 -2.66 45.27 -10.53 c 1.38 -0.77 3.78 -1.07 3.49 -2.99 c -0.27 -1.8 -2.59 -1.83 -4.18 -2.12 c -31.07 -5.68 -58.59 -19.26 -84.31 -37.17 c -11.52 -8.02 -22.53 -16.57 -32.75 -26.16 c -0.82 -0.77 -1.97 -1.34 -1.85 -3.65 c 5.61 2.02 11.05 3.78 16.33 5.92 c 25.01 10.1 49.44 21.68 74.92 30.6 c 30.81 10.78 62.29 17.17 95.1899 12.6 C 723.7715 471.99 727.4215 471.08 728.8215 472.99 z" stroke-linecap="round"/>
</g>
		<g transform="matrix(1 0 0 1 358.2426 144.6477)" id="XMLID_1_">
<path style="stroke: none; stroke-width: 1; stroke-dasharray: none; stroke-linecap: butt; stroke-dashoffset: 0; stroke-linejoin: miter; stroke-miterlimit: 4; is-custom-font: none; font-file-url: none; fill: rgb(110,28,226); fill-rule: nonzero; opacity: 1;" transform=" translate(-861.5657, -431.7136)" d="M 765.8915 470.94 c -0.91 -0.28 -1.8 -0.65 -2.7 -0.98 c 0.02 -0.45 0.04 -0.9 0.05 -1.34 c 6.75 -0.49 13.5 -1.07 20.25 -1.44 c 29.3 -1.61 57.81 -7.3 85.54 -16.77 c 15 -5.12 27.47 -14.9 40.65 -23.31 c 5.8 -3.7 10.68 -8.48 15.78 -13.01 c 3.01 -2.68 2.85 -4.77 -0.25 -7.22 c -7.69 -6.11 -15.27 -12.37 -22.88 -18.57 c -1.27 -1.03 -2.78 -1.85 -3.57 -3.92 c 1.82 -0.72 3.4 -0.08 5.06 0.41 c 18.65 5.5 35.59 14.95 53.17 22.93 c 2.68 1.21 4.15 2.59 1.7 5.59 c -10.65 13.03 -21.2 26.07 -34.23 36.95 c -22.33 18.63 -48.64 27.13 -76.89 28.59 C 820.1315 480.27 792.5715 479.14 765.8915 470.94 z" stroke-linecap="round"/>
</g>
		<g transform="matrix(1 0 0 1 228.6855 67.2957)" id="XMLID_1_">
<path style="stroke: none; stroke-width: 1; stroke-dasharray: none; stroke-linecap: butt; stroke-dashoffset: 0; stroke-linejoin: miter; stroke-miterlimit: 4; is-custom-font: none; font-file-url: none; fill: rgb(110,28,226); fill-rule: nonzero; opacity: 1;" transform=" translate(-732.0086, -354.3616)" d="M 911.3415 251.38 c 2.31 0.84 1.26 3.84 1.16 5.85 c -1.84 38.58 -11.09 74.9 -32.11 107.84 c -17.11 26.82 -38.36 49.57 -65.35 66.35 c -25.28 15.73 -52.84 24.65 -83.01 25.8 c -18.46 0.71 -36.58 -0.01 -54.57 -4.12 c -0.81 -0.18 -1.63 -0.37 -2.41 -0.64 c -0.26 -0.09 -0.43 -0.44 -0.99 -1.04 c 9.78 -1.07 19.24 -2.3 28.73 -3.12 c 33.6 -2.89 63.66 -15.19 90.95 -34.48 c 11.23 -7.94 19.85 -18.69 28.42 -29.35 c 12.08 -15.02 21.19 -31.88 30.53 -48.6 c 1.94 -3.48 4.52 -6.63 5.53 -10.6 c 0.25 -0.95 0.69 -2.02 -0.39 -2.68 c -0.91 -0.57 -1.48 0.4 -2.12 0.84 c -26.35 17.74 -56.04 26.34 -86.75 32.71 c -30.32 6.29 -60.98 8.24 -91.78 9.44 c -40.43 1.58 -77.93 13.14 -112.75 33.6 c -4.1 2.41 -8.26 4.72 -12.38 7.08 c -0.29 -0.34 -0.58 -0.67 -0.86 -1 c 8.11 -10.49 16.57 -20.65 26.08 -29.98 c 21.3 -20.88 47.33 -34.3 73.66 -47.22 c 19.56 -9.59 40.77 -12.79 62.07 -15.97 c 31.37 -4.68 63.1 -4.51 94.55 -8.06 c 16.98 -1.91 33.76 -4.97 49.28 -12.07 c 19.22 -8.78 36.29 -20.9 50.4 -36.88 C 908.4715 253.68 909.3015 250.63 911.3415 251.38 z" stroke-linecap="round"/>
</g>
		<g transform="matrix(1 0 0 1 317.5704 -54.5959)" id="XMLID_1_">
<path style="stroke: none; stroke-width: 1; stroke-dasharray: none; stroke-linecap: butt; stroke-dashoffset: 0; stroke-linejoin: miter; stroke-miterlimit: 4; is-custom-font: none; font-file-url: none; fill: rgb(110,28,226); fill-rule: nonzero; opacity: 1;" transform=" translate(-820.8934, -232.4699)" d="M 881.6415 180.38 c 0.16 11.45 2.06 22.84 -0.03 34.36 c -1.45 7.99 -0.48 16.25 -1.56 24.38 c -2.59 19.45 -14.46 31.25 -31.05 39.8 c -17.88 9.22 -36.98 9.9 -56.4 9.42 c -9.48 -0.24 -18.96 -0.06 -28.44 -0.12 c -1.57 -0.01 -3.27 0.6 -4.96 -0.67 c 4.44 -5.73 11.41 -7.16 17.22 -10.28 c 19.89 -10.67 38.77 -22.54 54.43 -39.15 c 17.17 -18.22 32.12 -38.13 46.23 -58.73 c 0.79 -1.14 1.08 -3.3 2.94 -2.84 C 881.6715 176.96 881.6215 178.98 881.6415 180.38 z" stroke-linecap="round"/>
</g>
		<g transform="matrix(1 0 0 1 255.925 -83.5897)" id="XMLID_1_">
<path style="stroke: none; stroke-width: 1; stroke-dasharray: none; stroke-linecap: butt; stroke-dashoffset: 0; stroke-linejoin: miter; stroke-miterlimit: 4; is-custom-font: none; font-file-url: none; fill: rgb(110,28,226); fill-rule: nonzero; opacity: 1;" transform=" translate(-759.2481, -203.4761)" d="M 674.7515 304.57 c 9.84 -6.31 20.78 -10.09 30.43 -16.31 c 21.37 -13.77 43.46 -26.65 61.97 -44.33 c 18.27 -17.45 31.36 -38.49 38.32 -62.8 c 3.65 -12.76 5.56 -26.03 5.5 -39.47 c -0.02 -3.94 -1.33 -4.86 -5.19 -5.07 c -20.45 -1.12 -39.54 4.27 -58.32 11.44 c -1.46 0.55 -2.83 1.77 -4.98 0.96 c 7.92 -8.73 17.94 -13.9 28.1 -18.73 c 18.63 -8.85 37.3 -17.62 56.7 -24.72 c 1.71 -0.63 3.42 -1.3 5.17 -1.81 c 7.97 -2.37 8.03 -2.36 9.32 6.25 c 6.94 46.28 -4.22 87.07 -36.77 121.42 c -19.96 21.07 -43.75 36.64 -69.58 49.54 c -19.12 9.55 -39.02 16.97 -59.29 23.53 C 675.7115 304.61 675.2115 304.54 674.7515 304.57 z" stroke-linecap="round"/>
</g>
		<g transform="matrix(1 0 0 1 146.9553 -109.5514)" id="XMLID_1_">
<path style="stroke: none; stroke-width: 1; stroke-dasharray: none; stroke-linecap: butt; stroke-dashoffset: 0; stroke-linejoin: miter; stroke-miterlimit: 4; is-custom-font: none; font-file-url: none; fill: rgb(110,28,226); fill-rule: nonzero; opacity: 1;" transform=" translate(-650.2783, -177.5144)" d="M 616.9015 326.04 c -0.42 0.26 -0.86 0.53 -1.33 0.67 c -0.2599 0.07 -0.6 -0.12 -1.77 -0.4 c 6.91 -9.09 13.54 -17.94 20.31 -26.69 c 14.59 -18.88 28.46 -38.25 37.86 -60.33 c 7.34 -17.25 11.97 -35.41 13.64 -54.02 c 1.59 -17.72 -2.6 -34.77 -10.06 -50.87 c -8.21 -17.72 -17.99 -34.55 -29.73 -50.19 c -1.89 -2.52 -4.09 -4.81 -6.21 -7.15 c -6.57 -7.26 -6.66 -7.4 -15.49 -2.74 c -11.77 6.2 -23.33 12.79 -35.35 20.74 c 3.21 -10.29 8.87 -17.77 14.24 -25.31 c 9.83 -13.82 19.89 -27.46 32.04 -39.43 c 2.42 -2.38 4.56 -2.66 6.88 -0.8 c 12.18 9.77 25.81 18.14 34.07 31.93 c 12.71 21.17 23.8199 43.08 29.5099 67.41 c 3.51 14.99 5.88 30.1 6.2401 45.45 c 0.48 20.47 -4.21 40.06 -12.34 58.7 C 682.0115 272.9 653.7815 303.35 616.9015 326.04 z" stroke-linecap="round"/>
</g>
		<g transform="matrix(1 0 0 1 2.9666 -62.0479)" id="XMLID_1_">
<path style="stroke: none; stroke-width: 1; stroke-dasharray: none; stroke-linecap: butt; stroke-dashoffset: 0; stroke-linejoin: miter; stroke-miterlimit: 4; is-custom-font: none; font-file-url: none; fill: rgb(110,28,226); fill-rule: nonzero; opacity: 1;" transform=" translate(-506.2896, -225.0179)" d="M 633.7515 205.47 c 4.5699 27.76 0.25 54.9 -12.66 80.11 c -14.77 28.85 -32.55 55.78 -54.04 80.16 c -6.38 7.25 -13.71 13.47 -21.18 19.62 c 2.78 -5.01 6.89 -8.99 10.25 -13.52 c 9 -12.15 14.77 -26.01 21.7599 -39.22 c 14.33 -27.1 18.76 -56.32 18.08 -86.53 c -0.32 -14.12 -3.91 -27.6 -9.68 -40.5 c -9.77 -21.81 -23.6 -40.91 -39.37 -58.67 c -10.95 -12.33 -22.56 -24.04 -34.59 -35.32 c -2.79 -2.63 -4.79 -2.7 -7.55 -0.19 c -18.31 16.7 -37.76 32.28 -54.17 50.89 c -24.8 28.12 -39.87 60.71 -39.33 98.85 c 0.41 28.73 8.1 55.65 22.24 81 c 10.5 18.81 23.29 35.6 37.86 51.24 c 0.33 0.36 0.6 0.77 0.9 1.16 c -19.47 -13.31 -35.19 -30.28 -48.33 -49.69 c -8.3 -12.26 -17.77 -23.82 -24.4 -37.09 c -7.04 -14.09 -16.24 -27.39 -18.78 -43.34 c -3.16 -19.91 -5.48 -39.98 -1.87 -60.07 c 2.34 -13.08 7.75 -25.26 14.66 -36.43 c 12.08 -19.53 25.13 -38.53 41.97 -54.4 c 16.58 -15.63 34.57 -29.62 52.58 -43.56 c 5.65 -4.37 11.5 -8.5 16.99 -13.07 c 2.27 -1.89 3.88 -1.75 6.17 -0.38 c 13.03 7.8 25.41 16.49 36.99 26.31 c 17.53 14.86 35.71 29.14 49.52 47.73 C 614.5715 153.15 629.1115 177.3 633.7515 205.47 z" stroke-linecap="round"/>
</g>
		<g transform="matrix(1 0 0 1 -140.5806 -110.7516)" id="XMLID_1_">
<path style="stroke: none; stroke-width: 1; stroke-dasharray: none; stroke-linecap: butt; stroke-dashoffset: 0; stroke-linejoin: miter; stroke-miterlimit: 4; is-custom-font: none; font-file-url: none; fill: rgb(110,28,226); fill-rule: nonzero; opacity: 1;" transform=" translate(-362.7425, -176.3142)" d="M 425.2615 95.03 c -10.95 -4.1 -20.48 -10.54 -30.5 -16.06 c -14.3 -7.88 -10.05 -9.1 -21.71 3.01 c -20.46 21.26 -35.23 46.16 -43.98 74.07 c -12.15 38.73 -5.17 75.02 18.04 108.18 c 8.4 12 17.26 23.65 25.18 36 c 4.56 7.11 10.36 13.42 15.48 20.18 c 1.12 1.49 2.73 2.88 2.71 5.58 c -7.02 -3.13 -12.43 -8.07 -18.02 -12.54 c -21.1 -16.9 -39.1 -36.39 -51.76 -60.69 c -7.65 -14.67 -14.97 -29.16 -17.97 -45.7 c -4.17 -23.03 -3.1 -45.56 2.91 -68.13 c 10.11 -37.93 27.93 -71.71 53.41 -101.5 c 3.02 -3.53 6.25 -6.9 10.03 -9.7 c 1.31 -0.97 2.16 -1.75 3.74 -0.26 C 393.7815 47.24 411.6815 69.4 425.2615 95.03 z" stroke-linecap="round"/>
</g>
</g>
</g>
</svg>